Hammer of the Gods 2009 DVDRip XviD.FEEL-FREE 
http://www.imdb.com/title/tt1260572/

Genre:Action | Adventure | Drama | Fantasy | Horror | Thriller
Language:English
IMDb:http://www.imdb.com/title/tt1260572
Encoder: Tony2

Thor along with his friends travels to mysterious island seeking glory and fame. Upon arriving they encounter strange creatures and they start searching the island for answers. Meanwhile Thor keeps seeing visions for a mighty warrior and a big hammer and Freyja tells him that his visions are clues so they start searching for the hammer. 
http://img88.imageshack.us/img88/5300/gods4.jpg 
..............................................
General
Complete name : Hammer of the Gods 2009 DVDRip XviD.FEEL-FREE
Format : AVI
Format/Info : Audio Video Interleave
File size : 826 MiB
Duration : 1h 26mn
..............................................
Video
ID : 0
Format : MPEG-4 Visual
Codec ID : DIV3
Codec ID/Hint : DivX 3 Low
Duration : 1h 26mn
Bit rate : 1 199 Kbps
Width : 704 pixels
Height : 304 pixels
Display aspect ratio : 2.35:1
Frame rate : 23.976 fps
Resolution : 24 bits
Bits/(Pixel*Frame) : 0.234
Stream size : 740 MiB (90%)
...............................................
Audio
ID : 1
Format : MPEG Audio
Format version : Version 1
Format profile : Layer 3
Format settings, Mode : Joint stereo / MS Stereo
Codec ID : 55
Codec ID/Hint : MP3
Duration : 1h 26mn
Bit rate mode : Constant
Bit rate : 128 Kbps
Channel(s) : 2 channels
Sampling rate : 44.1 KHz
Resolution : 16 bits
Stream size : 79.0 MiB (10%)
................................................
Plot:
Thor along with his friends travels to mysterious island seeking glory and fame. Upon arriving they....
...................................................
